<svg xmlns="http://www.w3.org/2000/svg" xmlns:xlink="http://www.w3.org/1999/xlink" width="156" height="155.999" viewBox="0 0 156 155.999"><defs><style>.a{fill:url(#a);}</style><linearGradient id="a" x1="0.5" y1="-0.435" x2="0.5" y2="1" gradientUnits="objectBoundingBox"><stop offset="0" stop-color="#ff6060"/><stop offset="1" stop-color="#6b1e59"/></linearGradient></defs><g transform="translate(-749.547 -930.513)"><g transform="translate(770.645 964.248)"><g transform="translate(24.744 79.5)"><path class="a" d="M862.632,1053.643H803.168a2.427,2.427,0,0,1,0-4.854h59.464a2.427,2.427,0,0,1,0,4.854Z" transform="translate(-800.742 -1048.789)"/></g><path class="a" d="M795.849,1019.7a25.2,25.2,0,1,1,25.205-25.2A25.232,25.232,0,0,1,795.849,1019.7Zm0-45.555A20.35,20.35,0,1,0,816.2,994.493,20.375,20.375,0,0,0,795.849,974.142Z" transform="translate(-770.645 -969.289)"/><g transform="translate(12.585 12.585)"><path class="a" d="M795.849,1007.113a12.619,12.619,0,1,1,12.62-12.62A12.634,12.634,0,0,1,795.849,1007.113Zm0-20.385a7.765,7.765,0,1,0,7.766,7.765A7.773,7.773,0,0,0,795.849,986.728Z" transform="translate(-783.23 -981.874)"/></g><g transform="translate(63.396)"><path class="a" d="M869.952,1019.7a25.2,25.2,0,1,1,25.2-25.2A25.233,25.233,0,0,1,869.952,1019.7Zm0-45.555a20.35,20.35,0,1,0,20.35,20.351A20.374,20.374,0,0,0,869.952,974.142Z" transform="translate(-844.747 -969.289)"/></g><g transform="translate(75.981 12.585)"><path class="a" d="M869.952,1007.113a12.619,12.619,0,1,1,12.619-12.62A12.635,12.635,0,0,1,869.952,1007.113Zm0-20.385a7.765,7.765,0,1,0,7.765,7.765A7.774,7.774,0,0,0,869.952,986.728Z" transform="translate(-857.332 -981.874)"/></g></g><g transform="translate(749.547 930.513)"><path class="a" d="M827.547,1086.512a78,78,0,1,1,78-78A78.088,78.088,0,0,1,827.547,1086.512Zm0-151.458a73.458,73.458,0,1,0,73.459,73.458A73.541,73.541,0,0,0,827.547,935.054Z" transform="translate(-749.547 -930.513)"/></g></g></svg>