<svg xmlns="http://www.w3.org/2000/svg" width="156" height="156" viewBox="0 0 156 156"><defs><style>.a{fill:#939bff;}.b{fill:#231804;}.c{fill:#fff;}.d{fill:#f0551f;}</style></defs><rect class="a" width="156" height="156"/><g transform="translate(41.786 89.062)"><path class="b" d="M53.592,114.206c-.292-.709,3.088,26.171,36.191,27.166,33.1-1,36.484-27.875,36.191-27.166A155.028,155.028,0,0,1,53.592,114.206Z" transform="translate(-53.576 -114.192)"/></g><g transform="translate(46.244 90.073)"><path class="c" d="M91.042,124.446c15.017-.367,25.058-4.244,31.75-8.958a155.018,155.018,0,0,1-63.5,0C65.984,120.2,76.025,124.079,91.042,124.446Z" transform="translate(-59.292 -115.488)"/></g><g transform="translate(54.855 104.258)"><path class="d" d="M116.61,138.763c-5.793-3.124-14-5.088-23.138-5.088s-17.345,1.963-23.138,5.088c5.336,3.741,12.782,6.586,23.138,6.9C103.827,145.348,111.273,142.5,116.61,138.763Z" transform="translate(-70.333 -133.675)"/></g><g transform="translate(40.572 55.554)"><path class="b" d="M72.588,87.8a3.06,3.06,0,0,1-3.06-3.06V82.956a5.695,5.695,0,0,0-11.389,0v1.787a3.06,3.06,0,1,1-6.12,0V82.956a11.815,11.815,0,0,1,23.629,0v1.787A3.061,3.061,0,0,1,72.588,87.8Z" transform="translate(-52.02 -71.229)"/><g transform="translate(51.214)"><path class="b" d="M138.254,87.8a3.061,3.061,0,0,1-3.06-3.06V82.956a5.7,5.7,0,0,0-11.389,0v1.787a3.06,3.06,0,1,1-6.12,0V82.956a11.815,11.815,0,0,1,23.63,0v1.787A3.06,3.06,0,0,1,138.254,87.8Z" transform="translate(-117.684 -71.229)"/></g></g></svg>