<svg xmlns="http://www.w3.org/2000/svg" xmlns:xlink="http://www.w3.org/1999/xlink" width="156" height="156.002" viewBox="0 0 156 156.002"><defs><style>.a{fill:url(#a);}</style><linearGradient id="a" x1="0.5" y1="-0.435" x2="0.5" y2="1" gradientUnits="objectBoundingBox"><stop offset="0" stop-color="#ff6060"/><stop offset="1" stop-color="#6b1e59"/></linearGradient></defs><g transform="translate(-24.479 -24.781)"><g transform="translate(52.824 67.019)"><path class="a" d="M68.476,104.56c-5.775,0-10.3-6.894-10.3-15.694s4.524-15.694,10.3-15.694,10.3,6.893,10.3,15.694S74.25,104.56,68.476,104.56Zm0-26.534c-2.57,0-5.445,4.636-5.445,10.84s2.875,10.841,5.445,10.841,5.444-4.636,5.444-10.841S71.046,78.026,68.476,78.026Z" transform="translate(-58.177 -73.172)"/><g transform="translate(78.712)"><path class="a" d="M147.187,104.56c-5.774,0-10.3-6.894-10.3-15.694s4.524-15.694,10.3-15.694,10.3,6.893,10.3,15.694S152.962,104.56,147.187,104.56Zm0-26.534c-2.57,0-5.444,4.636-5.444,10.84s2.874,10.841,5.444,10.841,5.445-4.636,5.445-10.841S149.757,78.026,147.187,78.026Z" transform="translate(-136.889 -73.172)"/></g><g transform="translate(11.352 43.361)"><path class="a" d="M108.2,155.688c-16.144,0-30.824-8.545-37.4-21.77a12.019,12.019,0,0,1,10.746-17.385h53.306A12.018,12.018,0,0,1,145.6,133.918C139.022,147.143,124.342,155.688,108.2,155.688Zm-26.653-34.3a7.165,7.165,0,0,0-6.4,10.369c5.762,11.59,18.736,19.078,33.053,19.078s27.29-7.488,33.053-19.078a7.166,7.166,0,0,0-6.4-10.369Z" transform="translate(-69.529 -116.533)"/></g></g><g transform="translate(24.479 24.781)"><path class="a" d="M102.479,180.783a78,78,0,1,1,78-78A78.089,78.089,0,0,1,102.479,180.783Zm0-151.46a73.459,73.459,0,1,0,73.458,73.458A73.541,73.541,0,0,0,102.479,29.323Z" transform="translate(-24.479 -24.781)"/></g></g></svg>