<svg xmlns="http://www.w3.org/2000/svg" xmlns:xlink="http://www.w3.org/1999/xlink" width="156" height="156" viewBox="0 0 156 156"><defs><style>.a{fill:url(#a);}</style><linearGradient id="a" x1="0.5" y1="-0.435" x2="0.5" y2="1" gradientUnits="objectBoundingBox"><stop offset="0" stop-color="#ff6060"/><stop offset="1" stop-color="#6b1e59"/></linearGradient></defs><g transform="translate(-205.746 -24.781)"><g transform="translate(205.746 24.781)"><path class="a" d="M283.746,180.781a78,78,0,1,1,78-78A78.088,78.088,0,0,1,283.746,180.781Zm0-151.458A73.458,73.458,0,1,0,357.2,102.781,73.541,73.541,0,0,0,283.746,29.323Z" transform="translate(-205.746 -24.781)"/></g><g transform="translate(230.435 80.766)"><path class="a" d="M269.673,96.053a2.421,2.421,0,0,1-1.662-.658c-13.3-12.5-27.608-.452-28.209.065a2.427,2.427,0,0,1-3.182-3.666c.179-.156,18.186-15.467,34.715.063a2.427,2.427,0,0,1-1.662,4.2Z" transform="translate(-235.787 -84.903)"/><g transform="translate(70.31)"><path class="a" d="M339.982,96.053a2.421,2.421,0,0,1-1.662-.658c-13.3-12.5-27.608-.452-28.209.065a2.427,2.427,0,0,1-3.182-3.666c.181-.156,18.185-15.467,34.715.063a2.427,2.427,0,0,1-1.662,4.2Z" transform="translate(-306.097 -84.903)"/></g></g><g transform="translate(224.63 108.483)"><path class="a" d="M285.116,158.891a102.083,102.083,0,0,1-17.136-1.444c-12.564-2.164-23.113-6.614-30.508-12.868a35.42,35.42,0,0,1-12.831-24.359,2.386,2.386,0,0,1,1.98-2.669,2.293,2.293,0,0,1,2.446,2.159A30.624,30.624,0,0,0,240.2,140.744c15.764,13.334,43.284,14.673,57.935,12.323,19.89-3.192,34.984-16.272,40.377-34.986a2.19,2.19,0,0,1,2.789-1.588,2.474,2.474,0,0,1,1.456,3.042c-5.916,20.534-22.355,34.864-43.974,38.335A87.35,87.35,0,0,1,285.116,158.891Z" transform="translate(-224.63 -116.379)"/></g></g></svg>