<svg xmlns="http://www.w3.org/2000/svg" xmlns:xlink="http://www.w3.org/1999/xlink" width="156" height="156" viewBox="0 0 156 156"><defs><style>.a{fill:url(#a);}</style><linearGradient id="a" x1="0.5" y1="-0.435" x2="0.5" y2="1" gradientUnits="objectBoundingBox"><stop offset="0" stop-color="#ff6060"/><stop offset="1" stop-color="#6b1e59"/></linearGradient></defs><g transform="translate(-24.479 -750.216)"><g transform="translate(47.889 803.948)"><g transform="translate(11.64)"><path class="a" d="M72.148,834.539a12.62,12.62,0,1,1,12.62-12.62A12.633,12.633,0,0,1,72.148,834.539Zm0-20.385a7.766,7.766,0,1,0,7.766,7.765A7.773,7.773,0,0,0,72.148,814.154Z" transform="translate(-59.529 -809.3)"/></g><g transform="translate(72.3)"><path class="a" d="M143.514,834.539a12.62,12.62,0,1,1,12.619-12.62A12.635,12.635,0,0,1,143.514,834.539Zm0-20.385a7.766,7.766,0,1,0,7.765,7.765A7.774,7.774,0,0,0,143.514,814.154Z" transform="translate(-130.894 -809.3)"/></g><g transform="translate(0 43.683)"><path class="a" d="M154.859,857.837H50.1a2.438,2.438,0,0,1,0-4.854H154.859a2.438,2.438,0,0,1,0,4.854Z" transform="translate(-47.889 -852.983)"/></g></g><g transform="translate(24.479 750.216)"><path class="a" d="M102.479,906.216a78,78,0,1,1,78-78A78.089,78.089,0,0,1,102.479,906.216Zm0-151.459a73.458,73.458,0,1,0,73.457,73.459A73.542,73.542,0,0,0,102.479,754.757Z" transform="translate(-24.479 -750.216)"/></g></g></svg>