<svg xmlns="http://www.w3.org/2000/svg" width="156" height="156" viewBox="0 0 156 156"><defs><style>.a{fill:#ff6060;}.b{fill:#231804;}</style></defs><g transform="translate(-0.023 -0.376)"><rect class="a" width="156" height="156" transform="translate(0.023 0.376)"/><g transform="translate(43.726 52.666)"><path class="b" d="M459.127,91.313a3.059,3.059,0,0,1-1.533-5.709L468.3,79.42l-10.709-6.183a3.059,3.059,0,1,1,3.06-5.3l15.3,8.833a3.06,3.06,0,0,1,0,5.3l-15.3,8.833A3.035,3.035,0,0,1,459.127,91.313Z" transform="translate(-456.064 -67.526)"/><g transform="translate(47.115)"><path class="b" d="M534.828,91.313a3.035,3.035,0,0,1-1.527-.41L518,82.07a3.06,3.06,0,0,1,0-5.3l15.3-8.833a3.059,3.059,0,1,1,3.06,5.3L525.652,79.42,536.361,85.6a3.059,3.059,0,0,1-1.533,5.709Z" transform="translate(-516.472 -67.526)"/></g></g><g transform="translate(39.6 94.055)"><path class="b" d="M471.5,134.364a3.047,3.047,0,0,1-2-.746l-6.83-5.915-6.83,5.915a3.06,3.06,0,1,1-4.007-4.627l8.833-7.65a3.059,3.059,0,0,1,4.006,0l8.833,7.65a3.059,3.059,0,0,1-2,5.373Z" transform="translate(-450.774 -120.594)"/><g transform="translate(17.666)"><path class="b" d="M494.15,134.364a3.047,3.047,0,0,1-2-.746l-6.83-5.915-6.83,5.915a3.06,3.06,0,1,1-4.007-4.627l8.834-7.65a3.059,3.059,0,0,1,4.006,0l8.834,7.65a3.059,3.059,0,0,1-2,5.373Z" transform="translate(-473.425 -120.594)"/></g><g transform="translate(35.333)"><path class="b" d="M516.8,134.364a3.047,3.047,0,0,1-2-.746l-6.83-5.915-6.83,5.915a3.06,3.06,0,1,1-4.007-4.627l8.833-7.65a3.059,3.059,0,0,1,4.006,0l8.834,7.65a3.059,3.059,0,0,1-2,5.373Z" transform="translate(-496.076 -120.594)"/></g><g transform="translate(52.999)"><path class="b" d="M539.453,134.364a3.047,3.047,0,0,1-2-.746l-6.83-5.915-6.831,5.915a3.06,3.06,0,0,1-4.006-4.627l8.834-7.65a3.06,3.06,0,0,1,4.007,0l8.833,7.65a3.059,3.059,0,0,1-2,5.373Z" transform="translate(-518.727 -120.594)"/></g></g></g></svg>