<svg xmlns="http://www.w3.org/2000/svg" width="156" height="156" viewBox="0 0 156 156"><defs><style>.a{fill:#21bee9;}.b{fill:#231804;}.c{fill:#f0551f;}</style></defs><g transform="translate(0 -0.376)"><rect class="a" width="156" height="156" transform="translate(0 0.376)"/><g transform="translate(43.765 55.988)"><path class="b" d="M273.519,492.251a3.051,3.051,0,0,1-2.164-.9L257.01,477.009a3.06,3.06,0,0,1,4.327-4.327l14.345,14.345a3.06,3.06,0,0,1-2.164,5.223Z" transform="translate(-256.114 -471.786)"/><path class="b" d="M259.174,492.251a3.06,3.06,0,0,1-2.164-5.223l14.345-14.345a3.06,3.06,0,1,1,4.327,4.327l-14.345,14.345A3.05,3.05,0,0,1,259.174,492.251Z" transform="translate(-256.114 -471.786)"/><g transform="translate(47.991)"><path class="b" d="M335.051,492.251a3.05,3.05,0,0,1-2.164-.9l-14.345-14.345a3.06,3.06,0,1,1,4.327-4.327l14.345,14.345a3.06,3.06,0,0,1-2.164,5.223Z" transform="translate(-317.646 -471.786)"/><path class="b" d="M320.707,492.251a3.06,3.06,0,0,1-2.164-5.223l14.345-14.345a3.06,3.06,0,1,1,4.327,4.327L322.87,491.355A3.05,3.05,0,0,1,320.707,492.251Z" transform="translate(-317.646 -471.786)"/></g></g><g transform="translate(64.224 85.961)"><rect class="b" width="27.539" height="27.539" rx="13.77"/></g><g transform="translate(65.001 99.221)"><path class="c" d="M296.334,527.217c-5.693,0-10.607,1.877-12.992,6.644a11.816,11.816,0,0,0,11.045,7.635h3.9a11.815,11.815,0,0,0,11.045-7.636C306.941,529.094,302.027,527.217,296.334,527.217Z" transform="translate(-283.342 -527.217)"/></g></g></svg>