<svg xmlns="http://www.w3.org/2000/svg" width="156" height="156" viewBox="0 0 156 156"><defs><style>.a{fill:#a4ded2;}.b{fill:#231804;}.c{fill:#f0551f;}</style></defs><g transform="translate(-0.023)"><rect class="a" width="156" height="156" transform="translate(0.023)"/><g transform="translate(40.571 58.761)"><g transform="translate(51.215)"><path class="b" d="M129.587,291.915a11.779,11.779,0,0,1-11.9-11.728V278.4a3.06,3.06,0,1,1,6.119,0v1.787a5.7,5.7,0,0,0,11.389,0V278.4a3.06,3.06,0,1,1,6.119,0v1.787A11.74,11.74,0,0,1,129.587,291.915Z" transform="translate(-117.685 -275.341)"/></g><path class="b" d="M63.921,291.915a11.779,11.779,0,0,1-11.9-11.728V278.4a3.06,3.06,0,0,1,6.12,0v1.787a5.7,5.7,0,0,0,11.39,0V278.4a3.06,3.06,0,1,1,6.119,0v1.787A11.742,11.742,0,0,1,63.921,291.915Z" transform="translate(-52.019 -275.341)"/></g><g transform="translate(46.415 91.476)"><path class="b" d="M91.09,317.287c-26.684.451-31.721,20.549-31.575,20.221a224.086,224.086,0,0,1,63.15,0C122.81,337.836,117.774,317.738,91.09,317.287Z" transform="translate(-59.512 -317.287)"/></g><g transform="translate(59.801 102.511)"><path class="c" d="M113.059,339.155c-4.015-4.647-10.634-7.719-18.193-7.719s-14.178,3.072-18.193,7.719A224.189,224.189,0,0,1,113.059,339.155Z" transform="translate(-76.674 -331.436)"/></g></g></svg>